<svg viewBox="0 0 132 132" xmlns="http://www.w3.org/2000/svg" role="img" aria-label="Estrela Potiguar map pin">
  <defs>
    <radialGradient id="epPinStar" cx="50%" cy="40%" r="60%">
      <stop offset="0%" stop-color="#fffbe3"></stop>
      <stop offset="45%" stop-color="#f8de22"></stop>
      <stop offset="100%" stop-color="#e6c70f"></stop>
    </radialGradient>
    <linearGradient id="epPinTrail" x1="56" y1="64" x2="92" y2="30" gradientUnits="userSpaceOnUse">
      <stop offset="0%" stop-color="#fff3a8" stop-opacity="0.95"></stop>
      <stop offset="55%" stop-color="#f8de22" stop-opacity="0.5"></stop>
      <stop offset="100%" stop-color="#f8de22" stop-opacity="0"></stop>
    </linearGradient>
    <filter id="epPinGlow" x="-60%" y="-60%" width="220%" height="220%">
      <feGaussianBlur stdDeviation="5" result="b"></feGaussianBlur>
      <feMerge><feMergeNode in="b"></feMergeNode><feMergeNode in="SourceGraphic"></feMergeNode></feMerge>
    </filter>
  </defs>

  
  <path d="M66 126 C66 126 24 86 24 54 a42 42 0 1 1 84 0 C108 86 66 126 66 126 Z" fill="#100f46" stroke="#f8de22" stroke-width="3"></path>

  
  <g filter="url(#epPinGlow)">
    <g fill="none" stroke="url(#epPinTrail)" stroke-linecap="round">
      <path d="M58 60 Q78 42 92 47" stroke-width="2.1"></path>
      <path d="M57 58 Q76 36 90 34" stroke-width="2.1"></path>
      <path d="M56 56 Q72 34 84 28" stroke-width="2"></path>
      <path d="M55 55 Q66 35 74 28" stroke-width="1.8"></path>
    </g>
    <g transform="translate(55 60) scale(0.26) translate(-50 -50)">
      <path d="M50 3 C54.5 31 69 45.5 97 50 C69 54.5 54.5 69 50 97 C45.5 69 31 54.5 3 50 C31 45.5 45.5 31 50 3 Z" fill="url(#epPinStar)"></path>
    </g>
  </g>
</svg>